<svg width="17" height="18" viewBox="0 0 17 18" fill="none" xmlns="http://www.w3.org/2000/svg">
<path d="M11.6247 8.22107C11.6721 8.26833 11.7097 8.32447 11.7353 8.38629C11.761 8.4481 11.7742 8.51436 11.7742 8.58129C11.7742 8.64821 11.761 8.71447 11.7353 8.77629C11.7097 8.8381 11.6721 8.89424 11.6247 8.9415L8.57199 11.9942C8.52473 12.0416 8.46858 12.0792 8.40677 12.1048C8.34496 12.1305 8.27869 12.1437 8.21177 12.1437C8.14485 12.1437 8.07858 12.1305 8.01677 12.1048C7.95496 12.0792 7.89881 12.0416 7.85155 11.9942L6.3252 10.4679C6.2779 10.4205 6.24037 10.3644 6.21477 10.3026C6.18917 10.2408 6.17599 10.1745 6.17599 10.1076C6.17599 10.0407 6.18917 9.97449 6.21477 9.91269C6.24037 9.85088 6.2779 9.79472 6.3252 9.74742C6.42074 9.65188 6.55031 9.59821 6.68542 9.59821C6.75232 9.59821 6.81856 9.61139 6.88037 9.63699C6.94218 9.66259 6.99833 9.70011 7.04564 9.74742L8.21177 10.9146L10.9042 8.22107C10.9515 8.17369 11.0077 8.13609 11.0695 8.11045C11.1313 8.0848 11.1975 8.07159 11.2645 8.07159C11.3314 8.07159 11.3977 8.0848 11.4595 8.11045C11.5213 8.13609 11.5774 8.17369 11.6247 8.22107V8.22107Z" fill="white"/>
<path d="M4.14147 0.949524C4.27641 0.949524 4.40582 1.00313 4.50123 1.09854C4.59665 1.19396 4.65025 1.32337 4.65025 1.45831V1.96709H12.7908V1.45831C12.7908 1.32337 12.8444 1.19396 12.9398 1.09854C13.0352 1.00313 13.1646 0.949524 13.2996 0.949524C13.4345 0.949524 13.5639 1.00313 13.6593 1.09854C13.7547 1.19396 13.8083 1.32337 13.8083 1.45831V1.96709H14.8259C15.3657 1.96709 15.8833 2.1815 16.265 2.56317C16.6466 2.94483 16.861 3.46247 16.861 4.00222V15.1954C16.861 15.7352 16.6466 16.2528 16.265 16.6345C15.8833 17.0162 15.3657 17.2306 14.8259 17.2306H2.61512C2.07537 17.2306 1.55772 17.0162 1.17606 16.6345C0.794402 16.2528 0.579987 15.7352 0.579987 15.1954V4.00222C0.579987 3.46247 0.794402 2.94483 1.17606 2.56317C1.55772 2.1815 2.07537 1.96709 2.61512 1.96709H3.63268V1.45831C3.63268 1.32337 3.68629 1.19396 3.7817 1.09854C3.87712 1.00313 4.00653 0.949524 4.14147 0.949524V0.949524ZM1.59755 5.01979V15.1954C1.59755 15.4653 1.70476 15.7241 1.89559 15.915C2.08642 16.1058 2.34524 16.213 2.61512 16.213H14.8259C15.0958 16.213 15.3546 16.1058 15.5454 15.915C15.7363 15.7241 15.8435 15.4653 15.8435 15.1954V5.01979H1.59755Z" fill="white"/>
</svg>
