<svg width="53" height="53" viewBox="0 0 53 53" fill="none" xmlns="http://www.w3.org/2000/svg">
<path d="M28.7994 45.6674H26.1254V41.1417C26.1254 40.6871 25.7575 40.3186 25.3023 40.3186H4.32018C3.86559 40.3186 3.49711 40.6871 3.49711 41.1417V45.6674H0.823065C0.368482 45.6674 0 46.0359 0 46.4904V51.8385C0 52.2931 0.367909 52.6616 0.823065 52.6616H28.7992C29.2538 52.6616 29.6223 52.2931 29.6223 51.8385V46.4904C29.6223 46.0359 29.2544 45.6674 28.7998 45.6674H28.7994ZM5.14309 41.9648H24.4796V45.6674H5.14309V41.9648ZM27.9766 51.0162H1.64607V47.3136H27.9766V51.0162Z" fill="#161A35"/>
<path d="M52.5659 23.3717C52.4638 23.1788 52.2893 23.0342 52.0804 22.9693L26.1392 14.9488L27.8852 9.30273C28.2474 9.28781 28.6055 9.20229 28.9356 9.02781C29.5187 8.72016 29.9475 8.2036 30.1415 7.57397C30.3366 6.94376 30.2746 6.27568 29.967 5.69248C29.6593 5.10929 29.1428 4.6806 28.5131 4.48603H28.5126L14.3627 0.111368C13.7302 -0.0837751 13.0632 -0.0206437 12.4818 0.286424C11.8986 0.594074 11.4699 1.11063 11.2759 1.74026C10.9591 2.76362 11.3511 3.83171 12.1633 4.43958L9.44499 13.2321L7.7432 18.7352V18.7363L6.72614 22.0252C5.71253 22.0688 4.78559 22.7288 4.46939 23.7516C4.27424 24.3819 4.3368 25.0499 4.64444 25.6331C4.95208 26.2163 5.46865 26.6444 6.09885 26.839L20.2493 31.2143H20.2487C20.4898 31.2883 20.7366 31.3256 20.9805 31.3256C21.3766 31.3256 21.7697 31.2292 22.1296 31.0386C22.7127 30.731 23.1415 30.2144 23.3355 29.5848C23.5306 28.9546 23.4681 28.2865 23.1604 27.7039C22.9859 27.3733 22.7391 27.1001 22.4481 26.8837L23.4641 23.5984C23.4641 23.5978 23.4646 23.5973 23.4652 23.5967L24.1941 21.2383L50.1367 29.2594C50.2171 29.2841 50.2992 29.2961 50.3795 29.2961C50.7313 29.2961 51.0562 29.0694 51.1653 28.7158L52.6237 23.999C52.6891 23.79 52.6673 23.5651 52.5663 23.3716L52.5659 23.3717ZM25.5389 11.3186L12.9611 7.42937L13.6901 5.07153L26.2679 8.96072L25.5389 11.3186ZM12.847 2.22704C12.9118 2.01697 13.0553 1.84477 13.2493 1.74261C13.3693 1.6789 13.5001 1.64676 13.6316 1.64676C13.7136 1.64676 13.7957 1.65939 13.8761 1.68407L28.0259 6.05873C28.2366 6.12359 28.4082 6.2665 28.5104 6.4605C28.6131 6.65507 28.6344 6.87776 28.5689 7.08784C28.5041 7.29791 28.3606 7.4701 28.1666 7.57283C27.972 7.67557 27.7487 7.69566 27.5398 7.63138L13.3899 3.25613C12.9566 3.12183 12.7138 2.66036 12.847 2.22702L12.847 2.22704ZM9.07253 20.0075L21.6498 23.8961L20.9203 26.2545L8.34303 22.3659L9.07253 20.0075ZM21.7639 29.0984C21.6991 29.3085 21.5556 29.4807 21.3616 29.5834C21.167 29.6856 20.9432 29.7057 20.7354 29.642H20.7348L6.58437 25.2667C6.37487 25.2019 6.20268 25.0589 6.09994 24.8649C5.9972 24.6704 5.97711 24.4477 6.0414 24.2376C6.15045 23.8846 6.47703 23.6579 6.8283 23.6579C6.90865 23.6579 6.99074 23.67 7.07165 23.6946L21.2215 28.0693C21.431 28.1342 21.6032 28.2771 21.7059 28.4711C21.8081 28.6662 21.8282 28.8889 21.7639 29.0984L21.7639 29.0984ZM23.5943 17.6072L22.1358 22.3235L9.55861 18.4349L12.4755 9.00127L25.0528 12.8905L23.5943 17.6072ZM49.8352 27.4431L24.6801 19.6653L25.6524 16.5212L50.8075 24.299L49.8352 27.4431Z" fill="#161A35"/>
</svg>
