<svg width="47" height="53" viewBox="0 0 47 53" fill="none" xmlns="http://www.w3.org/2000/svg">
<path d="M9.9375 36.4375C9.9375 35.559 10.2865 34.7164 10.9077 34.0952C11.5289 33.474 12.3715 33.125 13.25 33.125C14.1285 33.125 14.9711 33.474 15.5923 34.0952C16.2135 34.7164 16.5625 35.559 16.5625 36.4375V39.75C16.5625 40.6285 16.2135 41.4711 15.5923 42.0923C14.9711 42.7135 14.1285 43.0625 13.25 43.0625C12.3715 43.0625 11.5289 42.7135 10.9077 42.0923C10.2865 41.4711 9.9375 40.6285 9.9375 39.75V36.4375ZM29.8125 23.1875C29.8125 22.309 30.1615 21.4664 30.7827 20.8452C31.4039 20.224 32.2465 19.875 33.125 19.875C34.0035 19.875 34.8461 20.224 35.4673 20.8452C36.0885 21.4664 36.4375 22.309 36.4375 23.1875V39.75C36.4375 40.6285 36.0885 41.4711 35.4673 42.0923C34.8461 42.7135 34.0035 43.0625 33.125 43.0625C32.2465 43.0625 31.4039 42.7135 30.7827 42.0923C30.1615 41.4711 29.8125 40.6285 29.8125 39.75V23.1875ZM19.875 29.8125C19.875 28.934 20.224 28.0914 20.8452 27.4702C21.4664 26.849 22.309 26.5 23.1875 26.5C24.066 26.5 24.9086 26.849 25.5298 27.4702C26.151 28.0914 26.5 28.934 26.5 29.8125V39.75C26.5 40.6285 26.151 41.4711 25.5298 42.0923C24.9086 42.7135 24.066 43.0625 23.1875 43.0625C22.309 43.0625 21.4664 42.7135 20.8452 42.0923C20.224 41.4711 19.875 40.6285 19.875 39.75V29.8125Z" fill="#00F0FF"/>
<path d="M9.9375 4.96875H6.625C4.86794 4.96875 3.18285 5.66674 1.94042 6.90917C0.697989 8.1516 0 9.83669 0 11.5938V46.375C0 48.1321 0.697989 49.8172 1.94042 51.0596C3.18285 52.302 4.86794 53 6.625 53H39.75C41.5071 53 43.1922 52.302 44.4346 51.0596C45.677 49.8172 46.375 48.1321 46.375 46.375V11.5938C46.375 9.83669 45.677 8.1516 44.4346 6.90917C43.1922 5.66674 41.5071 4.96875 39.75 4.96875H36.4375V8.28125H39.75C40.6285 8.28125 41.4711 8.63024 42.0923 9.25146C42.7135 9.87267 43.0625 10.7152 43.0625 11.5938V46.375C43.0625 47.2535 42.7135 48.0961 42.0923 48.7173C41.4711 49.3385 40.6285 49.6875 39.75 49.6875H6.625C5.74647 49.6875 4.90392 49.3385 4.28271 48.7173C3.66149 48.0961 3.3125 47.2535 3.3125 46.375V11.5938C3.3125 10.7152 3.66149 9.87267 4.28271 9.25146C4.90392 8.63024 5.74647 8.28125 6.625 8.28125H9.9375V4.96875Z" fill="#00F0FF"/>
<path d="M28.1562 3.3125C28.5955 3.3125 29.0168 3.487 29.3274 3.7976C29.638 4.10821 29.8125 4.52949 29.8125 4.96875V8.28125C29.8125 8.72052 29.638 9.14179 29.3274 9.4524C29.0168 9.763 28.5955 9.9375 28.1562 9.9375H18.2188C17.7795 9.9375 17.3582 9.763 17.0476 9.4524C16.737 9.14179 16.5625 8.72052 16.5625 8.28125V4.96875C16.5625 4.52949 16.737 4.10821 17.0476 3.7976C17.3582 3.487 17.7795 3.3125 18.2188 3.3125H28.1562ZM18.2188 0C16.901 0 15.6371 0.523492 14.7053 1.45531C13.7735 2.38713 13.25 3.65096 13.25 4.96875V8.28125C13.25 9.59904 13.7735 10.8629 14.7053 11.7947C15.6371 12.7265 16.901 13.25 18.2188 13.25H28.1562C29.474 13.25 30.7379 12.7265 31.6697 11.7947C32.6015 10.8629 33.125 9.59904 33.125 8.28125V4.96875C33.125 3.65096 32.6015 2.38713 31.6697 1.45531C30.7379 0.523492 29.474 0 28.1562 0L18.2188 0Z" fill="#00F0FF"/>
</svg>
