<svg width="40" height="40" viewBox="0 0 40 40" fill="none" xmlns="http://www.w3.org/2000/svg">
<g clip-path="url(#clip0_2_346)">
<path d="M29.1484 1.9507C31.3438 -0.245938 34.9062 -0.245938 37.1016 1.9507L38.0469 2.89758C40.2422 5.09445 40.2422 8.65617 38.0469 10.8515L22.6406 26.2655C21.9609 26.9374 21.125 27.4296 20.2031 27.6952L12.3906 29.9296C11.7344 30.1171 11.0312 29.9296 10.5469 29.3827C10.0703 28.9687 9.88281 28.2655 10.0703 27.6093L12.3047 19.7968C12.5703 18.8749 13.0625 18.039 13.7344 17.3593L29.1484 1.9507ZM34.3828 4.60227C33.7188 3.87023 32.5312 3.87023 31.7969 4.60227L29.5234 6.87492L33.125 10.4765L35.3984 8.13273C36.1328 7.46867 36.1328 6.28117 35.3984 5.54914L34.3828 4.60227ZM15.9141 20.828L14.6016 25.3984L19.1719 24.0859C19.4844 23.9999 19.7578 23.8359 19.9844 23.6093L30.4766 13.1249L26.875 9.52336L16.3906 20.0155C16.1641 20.2421 16 20.5155 15.9141 20.828ZM15.625 4.99992C16.6641 4.99992 17.5 5.83977 17.5 6.87492C17.5 7.91398 16.6641 8.74992 15.625 8.74992H6.875C5.14922 8.74992 3.75 10.1484 3.75 11.8749V33.1249C3.75 34.8515 5.14922 36.2499 6.875 36.2499H28.125C29.8516 36.2499 31.25 34.8515 31.25 33.1249V24.3749C31.25 23.3359 32.0859 22.4999 33.125 22.4999C34.1641 22.4999 35 23.3359 35 24.3749V33.1249C35 36.9218 31.9219 39.9999 28.125 39.9999H6.875C3.07812 39.9999 0 36.9218 0 33.1249V11.8749C0 8.07805 3.07812 4.99992 6.875 4.99992H15.625Z" fill="#00F0FF"/>
</g>
<defs>
<clipPath id="clip0_2_346">
<rect width="40" height="40" fill="white"/>
</clipPath>
</defs>
</svg>
