<svg width="52" height="52" viewBox="0 0 52 52" fill="none" xmlns="http://www.w3.org/2000/svg">
<path d="M42.25 19.5H29.25V6.5H9.75V45.5H42.25V19.5ZM40.9045 16.25L32.5 7.8455V16.25H40.9045ZM8.125 3.25H32.5L45.5 16.25V47.125C45.5 47.556 45.3288 47.9693 45.024 48.274C44.7193 48.5788 44.306 48.75 43.875 48.75H8.125C7.69402 48.75 7.2807 48.5788 6.97595 48.274C6.67121 47.9693 6.5 47.556 6.5 47.125V4.875C6.5 4.44402 6.67121 4.0307 6.97595 3.72595C7.2807 3.4212 7.69402 3.25 8.125 3.25ZM16.25 26H35.75V29.25H16.25V26ZM16.25 16.25H24.375V19.5H16.25V16.25ZM16.25 35.75H35.75V39H16.25V35.75Z" fill="#00F0FF"/>
</svg>
