<svg width="43" height="49" viewBox="0 0 43 49" fill="none" xmlns="http://www.w3.org/2000/svg">
<path d="M3.31439 42.7298H17.0451L15.1449 47.3473H9.45104C9.02932 47.3473 8.6877 47.6889 8.6877 48.1106C8.6877 48.532 9.02896 48.874 9.45104 48.874H32.5951C33.0168 48.874 33.3585 48.5323 33.3585 48.1106C33.3585 47.6893 33.0172 47.3473 32.5951 47.3473H26.9006L25.0003 42.7298H38.7348C40.5873 42.7298 42.024 41.1843 42.024 39.4351V39.4325V17.3276C42.024 15.5121 40.5477 14.0358 38.7319 14.0358H35.6947V9.66775C35.6947 9.55571 35.6274 9.29195 35.4831 9.13804C35.4111 9.06163 27.0334 0.175596 27.1099 0.251298C26.8799 0.0242769 26.6276 0.0558743 26.5512 0.0319977C25.1233 0.0749766 32.3136 0.0327323 9.49708 0.0319977C7.76355 0.0319977 6.35333 1.50833 6.35333 3.32376V14.0358H3.31614C1.50033 14.0358 0.0240002 15.5121 0.0240002 17.3276V39.4353C0.0240002 41.2309 1.48932 42.73 3.31388 42.73L3.31439 42.7298ZM1.5519 39.4325V37.2498C67.6307 37.2542 9.73851 37.2505 40.4984 37.2498V39.4325C40.4984 40.3718 39.7273 41.2006 38.7326 41.2006H3.31636C2.34437 41.2006 1.55162 40.4089 1.55162 39.4325H1.5519ZM25.2499 47.3473H16.7959L18.6962 42.7298H23.35L25.2499 47.3473ZM38.7323 15.5628C39.7058 15.5628 40.4981 16.3548 40.4981 17.3282V35.7233H35.6951V15.5622L38.7323 15.5628ZM28.956 8.89891C28.2867 8.89891 27.7115 8.45369 27.465 7.82037C27.3845 7.61062 27.3393 7.38103 27.3393 7.14005L27.3397 2.71727L33.1599 8.89887L28.956 8.89891ZM9.4973 1.55903H25.8113V7.13238C25.8113 7.58641 25.8995 8.01951 26.0592 8.41329C26.5361 9.59762 27.6558 10.4315 28.9583 10.4315H34.169V35.7234H7.88026V3.32396C7.88026 2.35046 8.6054 1.55856 9.49765 1.55856L9.4973 1.55903ZM3.31608 15.5625H6.35328V35.7236H1.55068V17.3276C1.55068 16.3545 2.34267 15.5625 3.31608 15.5625Z" fill="#3B64D8"/>
<path d="M10.8818 5.22722H22.9903C23.412 5.22722 23.7536 4.8856 23.7536 4.46388C23.7536 4.04254 23.4124 3.70055 22.9903 3.70055H10.8818C10.46 3.70055 10.1184 4.04217 10.1184 4.46388C10.1184 4.8856 10.4597 5.22722 10.8818 5.22722Z" fill="#3B64D8"/>
<path d="M10.8818 9.94379H22.9903C23.412 9.94379 23.7536 9.60216 23.7536 9.18045C23.7536 8.75911 23.4124 8.41711 22.9903 8.41711L10.8818 8.41748C10.46 8.41748 10.1184 8.75911 10.1184 9.18082C10.1184 9.60216 10.4597 9.94379 10.8818 9.94379V9.94379Z" fill="#3B64D8"/>
<path d="M19.3905 23.7234L18.176 24.9378L17.6669 24.4287C17.3686 24.1304 16.8859 24.1304 16.5876 24.4287L11.6439 29.3723C10.7744 30.2404 10.7594 31.6671 11.6439 32.5502C12.5131 33.4201 13.9377 33.4403 14.8244 32.5535L19.7688 27.6091C19.912 27.4659 19.9925 27.2719 19.9925 27.0695C19.9925 26.8671 19.912 26.6731 19.7688 26.5299L19.2556 26.0167L20.4667 24.8056C23.318 27.1265 27.5447 26.9824 30.2224 24.3041C33.0252 21.5157 33.0792 16.8419 30.2224 13.9776C27.3781 11.1333 22.7437 11.1318 19.8893 13.9784C17.2643 16.6111 17.0633 20.8525 19.3908 23.7228L19.3905 23.7234ZM13.7452 31.4743C13.4634 31.7561 13.0064 31.7546 12.7225 31.4707C12.4367 31.1849 12.4492 30.7264 12.7232 30.4524L17.1273 26.048L18.15 27.0699L13.7452 31.4743ZM29.1423 15.0569C31.4 17.3208 31.3551 21.0211 29.1437 23.2247C29.1437 23.2247 29.143 23.2251 29.143 23.2254C26.8982 25.4695 23.2516 25.4762 20.9899 23.2262C20.9858 23.2221 20.9851 23.2166 20.9811 23.2126C20.977 23.2085 20.9711 23.2071 20.9667 23.203C18.6881 20.9075 18.7825 17.2499 20.9682 15.0584C23.2156 12.8165 26.8835 12.7981 29.1423 15.0569L29.1423 15.0569Z" fill="#3B64D8"/>
</svg>
