<svg width="48" height="48" viewBox="0 0 48 48" fill="none" xmlns="http://www.w3.org/2000/svg">
<path d="M25.9664 41.1692H23.5577V37.0925C23.5577 36.683 23.2263 36.3511 22.8162 36.3511H3.91554C3.50605 36.3511 3.17412 36.683 3.17412 37.0925V41.1692H0.765343C0.355854 41.1692 0.0239258 41.5012 0.0239258 41.9106V46.7282C0.0239258 47.1377 0.355338 47.4696 0.765343 47.4696H25.9663C26.3758 47.4696 26.7077 47.1377 26.7077 46.7282V41.9106C26.7077 41.5012 26.3763 41.1692 25.9668 41.1692H25.9664ZM4.65682 37.8339H22.0751V41.1692H4.65682V37.8339ZM25.2252 45.9875H1.50671V42.6522H25.2252V45.9875Z" fill="#3B64D8"/>
<path d="M47.3754 21.0852C47.2834 20.9115 47.1262 20.7812 46.938 20.7228L23.5702 13.4979L25.143 8.4119C25.4692 8.39846 25.7919 8.32142 26.0892 8.16425C26.6145 7.88711 27.0007 7.4218 27.1754 6.85463C27.3512 6.28693 27.2954 5.68513 27.0182 5.15979C26.7411 4.63444 26.2758 4.24828 25.7086 4.07301H25.7081L12.9619 0.132318C12.3921 -0.0434669 11.7914 0.0134018 11.2676 0.290009C10.7423 0.56714 10.3561 1.03246 10.1813 1.59962C9.89594 2.52147 10.2491 3.48361 10.9807 4.03117L8.53204 11.9515L6.99907 16.9087V16.9097L6.0829 19.8723C5.16984 19.9116 4.33485 20.5061 4.05001 21.4275C3.87423 21.9952 3.93058 22.597 4.2077 23.1223C4.48483 23.6477 4.95015 24.0333 5.51784 24.2086L18.2646 28.1498H18.264C18.4812 28.2165 18.7035 28.2501 18.9233 28.2501C19.28 28.2501 19.6342 28.1632 19.9583 27.9916C20.4836 27.7145 20.8698 27.2491 21.0446 26.682C21.2204 26.1143 21.164 25.5125 20.8869 24.9877C20.7297 24.6899 20.5074 24.4438 20.2453 24.2488L21.1604 21.2895C21.1604 21.2889 21.1609 21.2884 21.1614 21.2879L21.8181 19.1634L45.1872 26.3888C45.2595 26.4111 45.3335 26.4219 45.4059 26.4219C45.7228 26.4219 46.0154 26.2177 46.1137 25.8992L47.4274 21.6503C47.4864 21.4621 47.4667 21.2594 47.3757 21.0852L47.3754 21.0852ZM23.0295 10.2278L11.6994 6.72438L12.356 4.60043L23.6861 8.10381L23.0295 10.2278ZM11.5965 2.03811C11.655 1.84888 11.7842 1.69377 11.959 1.60174C12.067 1.54435 12.1849 1.5154 12.3033 1.5154C12.3772 1.5154 12.4512 1.52677 12.5236 1.54901L25.2698 5.4897C25.4595 5.54812 25.6141 5.67687 25.7061 5.85162C25.7987 6.02689 25.8178 6.22749 25.7589 6.41672C25.7005 6.60595 25.5712 6.76106 25.3964 6.85361C25.2212 6.94615 25.02 6.96425 24.8319 6.90634L12.0857 2.96512C11.6953 2.84414 11.4766 2.42845 11.5966 2.0381L11.5965 2.03811ZM8.19652 18.0547L19.5261 21.5576L18.869 23.6821L7.53939 20.1792L8.19652 18.0547ZM19.6289 26.2439C19.5705 26.4331 19.4413 26.5882 19.2665 26.6807C19.0912 26.7728 18.8896 26.7909 18.7024 26.7335H18.7019L5.95519 22.7923C5.76647 22.7338 5.61136 22.6051 5.51882 22.4303C5.42627 22.2551 5.40817 22.0545 5.46608 21.8652C5.56431 21.5473 5.85849 21.343 6.17492 21.343C6.24731 21.343 6.32124 21.3539 6.39413 21.3761L19.1403 25.3168C19.329 25.3753 19.4842 25.504 19.5767 25.6787C19.6687 25.8545 19.6868 26.0551 19.6289 26.2438L19.6289 26.2439ZM21.2777 15.8925L19.964 20.141L8.63439 16.6381L11.262 8.14034L22.5915 11.6437L21.2777 15.8925ZM44.9155 24.7527L22.2558 17.7465L23.1317 14.9143L45.7914 21.9205L44.9155 24.7527Z" fill="#3B64D8"/>
</svg>
