<svg width="53" height="57" viewBox="0 0 53 57" fill="none" xmlns="http://www.w3.org/2000/svg">
<path d="M3.4411 18.5189C1.5564 18.5189 0.0239868 20.0518 0.0239868 21.936C0.0239868 23.8249 1.55651 25.3616 3.4411 25.3616C3.72172 25.3616 3.99077 25.3179 4.25211 25.2541C5.28204 26.3457 6.30943 26.9537 7.35181 27.2287V31.0288L2.35205 38.9226H1.63144C1.39323 38.9226 1.16446 39.0182 0.997801 39.1878C0.830719 39.3575 0.737745 39.5867 0.741178 39.8249C0.796874 43.9066 4.1618 47.2273 8.24213 47.2273C12.3225 47.2273 15.6882 43.9066 15.7438 39.8249C15.7473 39.5867 15.6543 39.3571 15.4872 39.1878C15.3201 39.0182 15.0918 38.9226 14.8536 38.9226H14.1325L9.13191 31.0288V27.4129C10.6134 27.3512 12.1451 26.8336 13.7773 26.2754C15.7185 25.6118 17.8983 24.8741 20.5015 24.6916C20.7804 26.386 21.7911 27.894 23.2542 28.7364C23.3484 28.7989 23.5044 28.8846 23.5939 28.9313V46.5027L13.2924 46.5031C12.8005 46.5031 12.4021 46.9016 12.4021 47.3934V50.8615H10.7098C10.2179 50.8615 9.81951 51.2599 9.81951 51.7518L9.81993 55.2195H1.91121C1.41937 55.2195 1.02093 55.6179 1.02093 56.1097C1.02093 56.6011 1.41894 57 1.91121 57H50.5608C51.0526 57 51.4511 56.6016 51.4511 56.1097C51.4511 55.6183 51.0531 55.2195 50.5608 55.2195H42.6521V51.7509C42.6521 51.2595 42.2541 50.8606 41.7618 50.8606H40.0695V47.3925C40.0695 46.9011 39.6715 46.5022 39.1792 46.5022L28.8734 46.5031V28.9361C28.9843 28.8422 31.4611 27.7082 31.9709 24.6917C34.5719 24.8738 36.7508 25.6111 38.6904 26.2752C40.3236 26.8339 41.8564 27.3523 43.3402 27.4135V31.0295L38.3404 38.9233H37.6194C37.3812 38.9233 37.1524 39.0188 36.9857 39.1885C36.8186 39.3582 36.7257 39.5874 36.7291 39.8256C36.7848 43.9072 40.1497 47.2279 44.23 47.2279C48.3104 47.2279 51.6762 43.9072 51.7318 39.8256C51.7352 39.5874 51.6422 39.3577 51.4751 39.1885C51.3081 39.0188 51.0797 38.9233 50.8415 38.9233H50.1205L45.1198 31.0295V27.2294C46.1626 26.9539 47.1909 26.3464 48.2229 25.2556C48.4834 25.319 48.7516 25.3623 49.0314 25.3623C50.9161 25.3623 52.4485 23.8255 52.4485 21.9366C52.4485 20.0524 50.916 18.5195 49.0314 18.5195C47.1424 18.5195 45.6057 20.0525 45.6057 21.9366C45.6057 22.8796 45.9892 23.7348 46.6078 24.3551C44.4631 26.3593 42.4328 25.6751 39.2659 24.5912C37.1953 23.883 34.8646 23.0955 31.9976 22.9109C31.7474 21.166 30.7149 19.6026 29.1875 18.7183C29.0907 18.6588 28.9819 18.6211 28.8816 18.5684V16.4523C32.5198 15.245 34.6525 11.974 34.6525 8.46685C34.6525 3.81587 30.8763 0.0319977 26.2343 0.0319977C21.5923 0.0319977 17.8153 3.81587 17.8153 8.46685C17.8153 12.0151 20.0045 15.2729 23.5935 16.4527V18.5464C21.8177 19.459 20.7471 21.1076 20.4844 22.9108C17.6096 23.0946 15.2756 23.8833 13.2007 24.5924C10.0342 25.675 8.00518 26.3592 5.86471 24.355C6.48293 23.7351 6.86638 22.8804 6.86638 21.9374C6.8668 20.0523 5.33002 18.5194 3.44115 18.5194L3.4411 18.5189ZM40.8718 55.2191H11.6V52.6408H40.8718V55.2191ZM38.2892 50.8607H14.1821V48.2829H38.2892V50.8607ZM44.2298 45.4472C41.4245 45.4472 39.063 43.389 38.5934 40.7032H49.8671C49.3975 43.389 47.0352 45.4472 44.2299 45.4472H44.2298ZM40.4477 38.9227L44.2298 32.9504L48.0128 38.9227H40.4477ZM49.0317 20.2995C49.934 20.2995 50.6687 21.0334 50.6687 21.9365C50.6687 22.8439 49.934 23.5821 49.0317 23.5821C48.1093 23.5821 47.3861 22.8594 47.3861 21.9365C47.3861 21.0338 48.1243 20.2995 49.0317 20.2995ZM27.0929 29.5004V46.5004H25.3745L25.3741 29.4993C25.9177 29.579 26.5171 29.5833 27.0929 29.4997L27.0929 29.5004ZM25.3741 16.8425C25.9469 16.9012 26.5286 16.9012 27.1015 16.8425V17.9654C26.5338 17.8797 25.94 17.8797 25.3741 17.9654V16.8425ZM19.5962 8.46681C19.5962 4.79734 22.5742 1.81203 26.2347 1.81203C29.8952 1.81203 32.8724 4.79734 32.8724 8.46681C32.8724 12.21 29.8181 15.305 25.8389 15.0817C22.2315 14.8713 19.5962 11.9323 19.5962 8.46681V8.46681ZM24.2108 20.2352C25.4507 19.4752 27.1382 19.551 28.2757 20.2468C29.5117 20.9627 30.2795 22.2976 30.2795 23.7312H30.2812C30.2812 23.7338 30.2795 23.7359 30.2795 23.7385C30.2795 23.7484 30.2846 23.7565 30.2846 23.7663H30.2795C30.2529 26.3343 28.1738 27.2511 28.083 27.3407C26.7531 28.0057 25.201 27.8681 24.1903 27.2233C22.9672 26.5182 22.2042 25.1952 22.1972 23.7308C22.1968 22.2947 22.9611 20.9597 24.2108 20.2353V20.2352ZM1.80372 21.937C1.80372 21.0343 2.53847 20.2999 3.44077 20.2999C4.34817 20.2999 5.08637 21.0338 5.08637 21.937C5.08637 22.8598 4.36318 23.5826 3.44077 23.5826C2.53849 23.5821 1.80372 22.8444 1.80372 21.937V21.937ZM8.24167 45.4485C5.43635 45.4485 3.07488 43.3903 2.60524 40.7045H13.879C13.4094 43.3903 11.0471 45.4485 8.24179 45.4485H8.24167ZM4.45956 38.924L8.24167 32.9517L12.0247 38.924H4.45956Z" fill="#3B64D8"/>
<path d="M24.9027 13.0482H27.5739C28.0658 13.0482 28.4642 12.6497 28.4642 12.1579V10.6794H29.9367C30.4286 10.6794 30.827 10.281 30.827 9.78916V7.12389C30.827 6.63248 30.429 6.23361 29.9367 6.23361H28.4642L28.4638 4.75549C28.4638 4.26408 28.0658 3.86522 27.5735 3.86522H24.9023C24.4105 3.86522 24.012 4.26366 24.012 4.75549V6.23394H22.5336C22.0417 6.23394 21.6433 6.63238 21.6433 7.12422V9.78949C21.6433 10.2809 22.0413 10.6798 22.5336 10.6798H24.012L24.0125 12.1582C24.0125 12.6496 24.4105 13.0481 24.9027 13.0481V13.0482ZM23.4238 8.89928V8.01415H24.9023C25.3941 8.01415 25.7926 7.61571 25.7926 7.12388V5.64543H26.6837V7.12388C26.6837 7.61529 27.0817 8.01415 27.574 8.01415H29.0465V8.89928H27.574C27.0821 8.89928 26.6837 9.29772 26.6837 9.78955V11.268H25.7926V9.78955C25.7926 9.29814 25.3946 8.89928 24.9023 8.89928H23.4238Z" fill="#3B64D8"/>
</svg>
