<svg width="123" height="37" viewBox="0 0 123 37" fill="none" xmlns="http://www.w3.org/2000/svg">
<path d="M27 9.5013C22.7079 4.62277 17 0.00129898 9.5 0.00129936H111.756C112 -0.000438308 112.249 -0.000428306 112.5 0.00129936H111.756C102.415 0.0676041 97.8468 2.67848 92 9.50098C86 16.5023 80.5 22.5016 72.5 30.5013C64.5 38.501 53.5 38.001 46 30.5013C38.5 23.0016 34.5376 18.0688 27 9.5013Z" fill="#F6F6F6"/>
<path d="M70.546 7.93942C70.2647 7.65822 69.8833 7.50024 69.4855 7.50024C69.0878 7.50024 68.7063 7.65822 68.425 7.93942L61 15.3644L53.575 7.93942C53.2921 7.66619 52.9132 7.51499 52.5199 7.51841C52.1266 7.52183 51.7504 7.67958 51.4723 7.9577C51.1942 8.23581 51.0364 8.61203 51.033 9.00532C51.0296 9.39862 51.1808 9.77752 51.454 10.0604L59.9395 18.5459C60.2208 18.8271 60.6023 18.9851 61 18.9851C61.3977 18.9851 61.7792 18.8271 62.0605 18.5459L70.546 10.0604C70.8272 9.77913 70.9852 9.39767 70.9852 8.99992C70.9852 8.60218 70.8272 8.22072 70.546 7.93942Z" fill="#3B64D8"/>
</svg>
