<svg width="602" height="260" viewBox="0 0 602 260" fill="none" xmlns="http://www.w3.org/2000/svg">
<path d="M0 197.232V204.186H86.289V197.232C69.853 194.071 60.0546 193.439 60.0546 172.262V109.047H81.2318C119.477 109.047 123.27 116.316 125.166 135.597H131.804V71.7495H125.166C123.27 91.0302 119.477 98.2999 81.2318 98.2999H60.0546V40.4579C60.0546 18.6485 65.744 16.436 89.7659 16.436H116.316C139.074 16.436 144.447 27.4987 147.292 49.9402H155.826L152.981 5.05722H0V12.0109C16.436 15.1717 26.2344 15.8039 26.2344 36.981V172.262C26.2344 193.439 16.436 194.071 0 197.232Z" fill="#161A35"/>
<path d="M0 197.232V204.186H86.289V197.232C69.853 194.071 60.0546 193.439 60.0546 172.262V109.047H81.2318C119.477 109.047 123.27 116.316 125.166 135.597H131.804V71.7495H125.166C123.27 91.0302 119.477 98.2999 81.2318 98.2999H60.0546V40.4579C60.0546 18.6485 65.744 16.436 89.7659 16.436H116.316C139.074 16.436 144.447 27.4987 147.292 49.9402H155.826L152.981 5.05722H0V12.0109C16.436 15.1717 26.2344 15.8039 26.2344 36.981V172.262C26.2344 193.439 16.436 194.071 0 197.232Z" fill="url(#paint0_linear_2_389)"/>
<path d="M141.531 197.232V204.186H200.637V197.232C187.046 194.703 175.351 193.439 181.357 179.216L196.844 142.235H278.392L294.196 178.9C300.518 193.439 288.191 194.703 274.599 197.232V204.186H357.411V197.232C340.975 194.703 337.815 193.439 331.493 178.9L255.002 2.84469H242.675L168.081 179.216C162.076 193.439 157.967 194.703 141.531 197.232ZM201.269 131.488L236.67 46.1472L273.651 131.488H201.269Z" fill="#161A35"/>
<path d="M141.531 197.232V204.186H200.637V197.232C187.046 194.703 175.351 193.439 181.357 179.216L196.844 142.235H278.392L294.196 178.9C300.518 193.439 288.191 194.703 274.599 197.232V204.186H357.411V197.232C340.975 194.703 337.815 193.439 331.493 178.9L255.002 2.84469H242.675L168.081 179.216C162.076 193.439 157.967 194.703 141.531 197.232ZM201.269 131.488L236.67 46.1472L273.651 131.488H201.269Z" fill="url(#paint1_linear_2_389)"/>
<path d="M550.003 259.499C568.652 259.499 586.352 250.965 601.208 237.058C601.208 233.265 599.312 231.368 596.151 230.736C586.668 237.69 577.186 240.851 568.02 240.851C555.377 240.851 542.734 235.161 529.458 226.627L507.333 212.72C500.695 208.611 494.69 206.082 488.368 204.502C533.251 192.807 562.963 152.349 562.963 103.357C562.963 44.5669 520.924 0 462.45 0C402.712 0 360.673 46.4633 360.673 104.938C360.673 154.246 390.069 193.123 434.003 204.502C440.009 206.398 448.227 209.243 455.18 213.668L509.546 246.856C523.137 255.074 536.728 259.499 550.003 259.499ZM397.022 95.4552C397.022 42.3543 422.624 11.3788 457.077 11.3788C496.586 11.3788 526.614 53.1009 526.614 112.839C526.614 165.94 501.012 196.6 466.559 196.6C427.05 196.6 397.022 155.194 397.022 95.4552Z" fill="#161A35"/>
<path d="M550.003 259.499C568.652 259.499 586.352 250.965 601.208 237.058C601.208 233.265 599.312 231.368 596.151 230.736C586.668 237.69 577.186 240.851 568.02 240.851C555.377 240.851 542.734 235.161 529.458 226.627L507.333 212.72C500.695 208.611 494.69 206.082 488.368 204.502C533.251 192.807 562.963 152.349 562.963 103.357C562.963 44.5669 520.924 0 462.45 0C402.712 0 360.673 46.4633 360.673 104.938C360.673 154.246 390.069 193.123 434.003 204.502C440.009 206.398 448.227 209.243 455.18 213.668L509.546 246.856C523.137 255.074 536.728 259.499 550.003 259.499ZM397.022 95.4552C397.022 42.3543 422.624 11.3788 457.077 11.3788C496.586 11.3788 526.614 53.1009 526.614 112.839C526.614 165.94 501.012 196.6 466.559 196.6C427.05 196.6 397.022 155.194 397.022 95.4552Z" fill="url(#paint2_linear_2_389)"/>
<defs>
<linearGradient id="paint0_linear_2_389" x1="284.098" y1="-529.314" x2="284.098" y2="457.686" gradientUnits="userSpaceOnUse">
<stop stop-color="#F6F6F6" stop-opacity="0"/>
<stop offset="0.137378" stop-color="#F6F6F6" stop-opacity="0.51"/>
<stop offset="0.437401" stop-color="#F6F6F6" stop-opacity="0.66"/>
<stop offset="0.798793" stop-color="#F6F6F6"/>
</linearGradient>
<linearGradient id="paint1_linear_2_389" x1="284.098" y1="-529.314" x2="284.098" y2="457.686" gradientUnits="userSpaceOnUse">
<stop stop-color="#F6F6F6" stop-opacity="0"/>
<stop offset="0.137378" stop-color="#F6F6F6" stop-opacity="0.51"/>
<stop offset="0.437401" stop-color="#F6F6F6" stop-opacity="0.66"/>
<stop offset="0.798793" stop-color="#F6F6F6"/>
</linearGradient>
<linearGradient id="paint2_linear_2_389" x1="284.098" y1="-529.314" x2="284.098" y2="457.686" gradientUnits="userSpaceOnUse">
<stop stop-color="#F6F6F6" stop-opacity="0"/>
<stop offset="0.137378" stop-color="#F6F6F6" stop-opacity="0.51"/>
<stop offset="0.437401" stop-color="#F6F6F6" stop-opacity="0.66"/>
<stop offset="0.798793" stop-color="#F6F6F6"/>
</linearGradient>
</defs>
</svg>
