<svg width="268" height="35" viewBox="0 0 268 35" fill="none" xmlns="http://www.w3.org/2000/svg">
<g clip-path="url(#clip0_2_20)">
<path d="M83.6166 15.5812C83.7346 16.3591 84.3008 16.8129 84.9581 16.8129H85.2513V17.0109H79.7169V16.8237H80.0034C80.4011 16.8237 80.7651 16.4095 80.7213 15.9846L79.9933 8.85393L76.5453 15.2283C76.5453 15.2283 75.8611 16.4455 75.8341 17.4035H75.6622L70.9233 8.90435L70.1986 15.9846C70.1548 16.4095 70.5188 16.8237 70.9165 16.8237H71.203V17.0109H67.3472V16.8129H67.6404C68.301 16.8129 68.8909 16.3591 68.9886 15.5812L70.5121 2.96216H70.684L76.397 13.0027L81.8774 2.96936H82.0459L83.62 15.5848L83.6166 15.5812Z" fill="#161A35"/>
<path d="M92.1473 4.95374C88.251 4.95374 85.6355 7.3054 85.6355 11.1156C85.6355 14.9258 88.251 17.2667 92.1473 17.2667C96.0436 17.2667 98.6692 14.9078 98.6692 11.1156C98.6692 7.32341 96.0537 4.95374 92.1473 4.95374ZM92.1473 16.4888C89.916 16.4888 88.4566 14.4324 88.4566 11.1156C88.4566 7.79878 89.916 5.72802 92.1473 5.72802C94.3786 5.72802 95.838 7.78438 95.838 11.1156C95.838 14.4468 94.3921 16.4888 92.1473 16.4888Z" fill="#161A35"/>
<path d="M113.092 5.20577V5.40384H112.778C112.232 5.40384 111.794 5.8216 111.764 6.3798V14.9798C111.764 16.3519 111.963 17.2702 111.963 17.2702H111.797L103.334 9.30768V15.8117C103.351 16.3843 103.792 16.8165 104.349 16.8165H104.655V17.0145H99.5051V16.8165H99.8051C100.361 16.8165 100.816 16.3843 100.82 15.8117V7.16489C100.82 5.8288 100.621 4.93567 100.621 4.93567L100.796 4.94287L109.236 12.8802V6.40861C109.232 5.836 108.787 5.40384 108.231 5.40384H107.918V5.20577H113.085H113.092Z" fill="#161A35"/>
<path d="M124.326 8.00761H124.137V7.82394C124.144 6.70392 123.527 5.99086 122.452 5.97646H120.325V15.7937C120.338 16.3771 120.79 16.8201 121.339 16.8201H121.535V17.0181H116.445V16.8201H116.641C117.197 16.8201 117.642 16.3699 117.659 15.7757V5.97285H115.532C114.457 5.99086 113.847 6.70032 113.847 7.82394V8.00761H113.658V4.88525C113.961 5.0113 114.905 5.18777 115.593 5.18777H122.391C123.082 5.18777 124.09 5.0113 124.329 4.88525V8.00761H124.326Z" fill="#161A35"/>
<path d="M133.965 17.0109H125.303V16.8129H125.522C126.065 16.8129 126.506 16.3699 126.52 15.7829V6.42662C126.513 5.836 126.068 5.40024 125.522 5.40024H125.303V5.20217H131.781C132.472 5.19857 133.402 5.0257 133.696 4.89966V8.04002H133.503V7.85635C133.503 6.72193 132.893 6.01247 131.828 5.99446H129.176V10.7662H131.269C132.135 10.7482 132.674 10.0928 132.674 9.21045V9.0844H132.866V13.2475H132.674V13.1071C132.674 12.2356 132.145 11.5801 131.292 11.5513H129.172V16.2186H131.39C132.947 16.2006 134.016 15.131 134.498 13.3916H134.676L133.962 17.0073L133.965 17.0109Z" fill="#161A35"/>
<path d="M135.6 17.011V16.8129H135.819C136.395 16.8129 136.877 16.3627 136.881 15.7685V6.44827C136.877 5.85405 136.395 5.40388 135.819 5.40388H135.6V5.20581H140.821V5.40388H140.608C140.025 5.40388 139.56 5.84685 139.537 6.43386V15.7793C139.557 16.3699 140.025 16.8201 140.608 16.8201H140.828V17.0182H135.6V17.011Z" fill="#161A35"/>
<path d="M147.754 5.20581C149.796 5.20581 151.775 5.9765 151.775 8.429C151.775 9.81191 151.03 11.3281 149.217 11.609C149.945 11.8467 150.649 12.6786 150.993 13.2836C151.148 13.5825 151.684 14.5585 152.331 15.4768C153.049 16.5212 153.464 16.8129 154.225 16.8165V17.0146H152.682C150.683 17.0146 149.739 16.6004 148.863 15.1275C148.455 14.4252 147.798 13.1035 147.629 12.4445C147.323 11.6198 146.864 11.2668 146.527 11.238V11.0724H146.999C147.761 11.0616 148.603 10.7591 148.913 9.10605C148.947 8.95119 148.991 8.66669 148.974 8.28135C148.893 6.34023 147.656 6.05933 147.016 6.02691C146.541 6.0017 146.173 6.02691 145.964 6.01971V15.7721C145.964 16.4276 146.477 16.8165 146.965 16.8165H147.164V17.0146H142.095V16.8165H142.314C142.843 16.8165 143.281 16.3771 143.295 15.7901V6.42666C143.285 5.83604 142.857 5.40388 142.324 5.40388H142.091V5.20581H147.754Z" fill="#161A35"/>
<path d="M160.279 4.95374C156.382 4.95374 153.767 7.3054 153.767 11.1156C153.767 14.9258 156.382 17.2667 160.279 17.2667C164.175 17.2667 166.801 14.9078 166.801 11.1156C166.801 7.32341 164.185 4.95374 160.279 4.95374ZM160.279 16.4888C158.047 16.4888 156.588 14.4324 156.588 11.1156C156.588 7.79878 158.047 5.72802 160.279 5.72802C162.51 5.72802 163.969 7.78438 163.969 11.1156C163.969 14.4468 162.523 16.4888 160.279 16.4888Z" fill="#161A35"/>
<path d="M185.975 3.23584V3.43391H185.81C185.284 3.43391 184.651 3.75443 184.26 4.52872L179.898 14.8285C179.767 15.1274 179.039 16.8345 178.992 17.4071H178.827L173.245 4.56113C172.847 3.76524 172.217 3.43391 171.674 3.43391H171.526V3.23584H177.391V3.43031H177.229C176.754 3.43031 176.262 3.87688 176.521 4.66197L179.639 12.7974L182.885 4.66197C183.188 3.87327 182.655 3.43031 182.18 3.43031H182.018V3.23584H185.972H185.975Z" fill="#161A35"/>
<path d="M194.51 17.0109H185.847V16.8129H186.066C186.609 16.8129 187.051 16.3699 187.064 15.7829V6.42662C187.057 5.836 186.612 5.40024 186.066 5.40024H185.847V5.20217H192.325C193.016 5.19857 193.947 5.0257 194.24 4.89966V8.04002H194.048V7.85635C194.048 6.72193 193.438 6.01247 192.373 5.99446H189.72V10.7662H191.813C192.679 10.7482 193.219 10.0928 193.219 9.21045V9.0844H193.411V13.2475H193.219V13.1071C193.219 12.2356 192.689 11.5801 191.837 11.5513H189.717V16.2186H191.934C193.492 16.2006 194.56 15.131 195.042 13.3916H195.221L194.506 17.0073L194.51 17.0109Z" fill="#161A35"/>
<path d="M201.928 5.20581C203.971 5.20581 205.949 5.9765 205.949 8.429C205.949 9.81191 205.204 11.3281 203.391 11.609C204.119 11.8467 204.823 12.6786 205.167 13.2836C205.322 13.5825 205.858 14.5585 206.505 15.4768C207.223 16.5212 207.638 16.8129 208.399 16.8165V17.0146H206.856C204.857 17.0146 203.913 16.6004 203.037 15.1275C202.629 14.4252 201.972 13.1035 201.803 12.4445C201.497 11.6198 201.038 11.2668 200.701 11.238V11.0724H201.173C201.935 11.0616 202.777 10.7591 203.087 9.10605C203.121 8.95119 203.165 8.66669 203.148 8.28135C203.067 6.34023 201.83 6.05933 201.19 6.02691C200.715 6.0017 200.347 6.02691 200.138 6.01971V15.7721C200.138 16.4276 200.651 16.8165 201.139 16.8165H201.338V17.0146H196.269V16.8165H196.488C197.017 16.8165 197.455 16.3771 197.469 15.7901V6.42666C197.459 5.83604 197.031 5.40388 196.498 5.40388H196.266V5.20581H201.928Z" fill="#161A35"/>
<path d="M214.443 5.20581H208.214V5.40028H208.436C209.006 5.40028 209.458 5.83244 209.485 6.42666V15.7505C209.475 16.3411 209.016 16.8165 208.453 16.8165H208.224V17.0146H214.443C218.393 17.0146 220.769 14.825 220.769 11.1192C220.769 7.41342 218.396 5.20581 214.443 5.20581ZM214.224 16.2223H212.147V5.9801H214.224C216.539 5.9801 217.958 7.8996 217.958 11.1192C217.958 14.3388 216.529 16.2259 214.224 16.2259V16.2223Z" fill="#161A35"/>
<path d="M233.476 16.8165C232.97 16.8165 232.384 16.5068 232.03 15.7181L227.099 4.66199H226.944C226.887 5.21659 226.213 6.74356 226.084 7.04607L222.286 15.7865C221.935 16.5248 221.346 16.8129 220.877 16.8129H220.729V17.0109H224.406V16.8165H224.261C223.84 16.8165 223.368 16.4419 223.621 15.7505L224.355 13.9246H228.255L228.97 15.7217C229.246 16.4311 228.767 16.8165 228.343 16.8165H228.198V17.0109H233.611V16.8129H233.473L233.476 16.8165ZM224.669 13.1503L226.32 9.05201L227.948 13.1503H224.669Z" fill="#161A35"/>
<path d="M240.48 10.7482C241.42 11.364 242.077 12.3004 241.997 13.7013C241.882 15.9269 240.23 17.2666 237.669 17.2666C236.081 17.2666 234.804 16.8273 234.275 16.215C233.992 15.466 234.244 13.9642 234.689 13.2187H234.834C234.73 15.0014 235.909 16.4887 237.878 16.4815C239.314 16.4707 240.008 15.6604 240.008 14.6953C240.008 14.0182 239.577 13.5645 238.633 12.9234L236.011 11.148C234.831 10.3521 234.241 9.27527 234.379 7.92837C234.534 6.05208 235.825 4.95007 237.703 4.95007C238.319 4.95007 239.331 5.0293 240.096 5.13014H241.093L240.834 7.70869H240.679C240.679 6.51305 239.856 5.73156 238.39 5.73156C237.207 5.73156 236.422 6.369 236.375 7.26213C236.321 7.9932 236.877 8.37134 237.568 8.8251L240.48 10.7374V10.7482Z" fill="#161A35"/>
<path d="M254.552 12.0772L254.767 15.0447C254.046 16.2907 252.539 17.2667 250.143 17.2667C246.045 17.2451 243.503 15.0014 243.503 11.1012C243.503 7.20096 245.987 4.95374 250.143 4.95374C251.828 4.95374 253.321 5.34628 254.292 5.84686V8.97282H254.151C253.527 6.55633 252.159 5.72442 250.335 5.72442C247.659 5.72442 246.314 7.8528 246.314 11.0616C246.314 14.2704 247.733 16.4168 250.15 16.4816C252.779 16.4888 253.955 15.2823 254.41 12.0772H254.555H254.552Z" fill="#161A35"/>
<path d="M267.865 16.8165C267.36 16.8165 266.773 16.5068 266.419 15.7181L261.488 4.66199H261.333C261.276 5.21659 260.602 6.74356 260.474 7.04607L256.675 15.7865C256.325 16.5248 255.735 16.8129 255.266 16.8129H255.118V17.0109H258.795V16.8165H258.65C258.229 16.8165 257.757 16.4419 258.01 15.7505L258.745 13.9246H262.644L263.359 15.7217C263.635 16.4311 263.157 16.8165 262.732 16.8165H262.587V17.0109H268V16.8129H267.862L267.865 16.8165ZM259.058 13.1503L260.71 9.05201L262.338 13.1503H259.058Z" fill="#161A35"/>
<path d="M141.862 30.8544C141.566 30.8544 141.208 30.6635 141.013 30.2026L138.428 23.5797H138.34C138.34 23.8066 137.983 24.6421 137.983 24.6421L135.789 30.199C135.593 30.6599 135.236 30.8472 134.943 30.8472H134.855V30.9516H136.8V30.8508H136.716C136.466 30.8508 136.21 30.6167 136.345 30.2098L136.992 28.4451H139.597L140.214 30.2026C140.356 30.6167 140.096 30.8508 139.847 30.8508H139.762V30.9516H141.94V30.8472H141.859L141.862 30.8544ZM137.11 28.139L138.327 24.8222L139.493 28.139H137.11Z" fill="#161A35"/>
<path d="M145.684 23.731H142.415V23.8318H142.536C142.857 23.8318 143.153 24.0911 143.153 24.4224V30.2097C143.146 30.5699 142.873 30.858 142.533 30.858H142.412V30.9624H145.684C147.751 30.9624 149.156 29.5183 149.156 27.3503C149.156 25.1823 147.751 23.731 145.684 23.731ZM145.684 30.6455H143.783V24.0407H145.684C147.333 24.0407 148.431 25.3624 148.431 27.3503C148.431 29.3382 147.343 30.6491 145.684 30.6491V30.6455Z" fill="#161A35"/>
<path d="M156.544 23.7275V23.8319H156.46C156.167 23.8319 155.809 24.0156 155.614 24.473L153.288 30.0406C153.288 30.0406 152.931 30.8761 152.931 31.103H152.843L150.127 24.4766C149.931 24.0156 149.574 23.8283 149.274 23.8283H149.196V23.7239H151.374V23.8283H151.29C151.04 23.8283 150.784 24.0588 150.926 24.473L152.951 29.8858L155.054 24.4766C155.196 24.0624 154.936 23.8319 154.687 23.8319H154.603V23.7275H156.548H156.544Z" fill="#161A35"/>
<path d="M160.255 23.5834C158.199 23.5834 156.78 25.0887 156.78 27.3432C156.78 29.5976 158.199 31.1029 160.255 31.1029C162.311 31.1029 163.73 29.5976 163.73 27.3432C163.73 25.0887 162.311 23.5834 160.255 23.5834ZM160.255 30.7932C158.614 30.7932 157.522 29.4139 157.522 27.3432C157.522 25.2724 158.614 23.8931 160.255 23.8931C161.897 23.8931 162.989 25.2724 162.989 27.3432C162.989 29.4139 161.897 30.7932 160.255 30.7932Z" fill="#161A35"/>
<path d="M171.536 27.5988C171.223 27.5988 171.048 27.7681 171.054 28.067V29.774C170.613 30.4006 169.709 31.1065 168.257 31.1065C166.201 31.0957 164.782 29.5939 164.782 27.3467C164.782 25.0995 166.201 23.5869 168.253 23.5869C169.315 23.5869 170.03 23.893 170.596 24.2856L170.791 25.7441H170.71C170.417 24.5629 169.531 23.8966 168.257 23.8966C166.619 23.8966 165.506 25.2759 165.506 27.3467C165.506 29.4175 166.619 30.7896 168.257 30.7968C169.096 30.7968 169.881 30.451 170.437 29.9V28.0706C170.437 27.7681 170.252 27.5988 169.939 27.5988H169.787V27.4944H171.681V27.5988H171.536Z" fill="#161A35"/>
<path d="M178.773 30.8544C178.476 30.8544 178.119 30.6635 177.923 30.2026L175.338 23.5797H175.25C175.25 23.8066 174.893 24.6421 174.893 24.6421L172.699 30.199C172.504 30.6599 172.146 30.8472 171.853 30.8472H171.765V30.9516H173.71V30.8508H173.626C173.376 30.8508 173.12 30.6167 173.255 30.2098L173.902 28.4451H176.508L177.124 30.2026C177.266 30.6167 177.007 30.8508 176.757 30.8508H176.673V30.9516H178.85V30.8472H178.769L178.773 30.8544ZM174.02 28.139L175.237 24.8222L176.403 28.139H174.02Z" fill="#161A35"/>
<path d="M182.598 23.731H179.329V23.8318H179.45C179.77 23.8318 180.067 24.0911 180.067 24.4224V30.2097C180.06 30.5699 179.787 30.858 179.447 30.858H179.325V30.9624H182.598C184.664 30.9624 186.07 29.5183 186.07 27.3503C186.07 25.1823 184.661 23.731 182.598 23.731ZM182.598 30.6455H180.697V24.0407H182.598C184.246 24.0407 185.345 25.3624 185.345 27.3503C185.345 29.3382 184.256 30.6491 182.598 30.6491V30.6455Z" fill="#161A35"/>
<path d="M190.694 23.5834C188.638 23.5834 187.219 25.0887 187.219 27.3432C187.219 29.5976 188.638 31.1029 190.694 31.1029C192.75 31.1029 194.169 29.5976 194.169 27.3432C194.169 25.0887 192.75 23.5834 190.694 23.5834ZM190.694 30.7932C189.053 30.7932 187.961 29.4139 187.961 27.3432C187.961 25.2724 189.053 23.8931 190.694 23.8931C192.336 23.8931 193.428 25.2724 193.428 27.3432C193.428 29.4139 192.336 30.7932 190.694 30.7932Z" fill="#161A35"/>
<path d="M198.197 27.9121C198.584 28.2938 198.682 28.7548 198.682 29.1726C198.682 30.3142 197.985 31.1029 196.872 31.1029C196.4 31.1029 195.615 30.9588 195.234 30.5375C195.163 30.217 195.197 29.5615 195.345 29.0969H195.43C195.332 30.1629 195.962 30.8436 196.825 30.7932C197.529 30.75 198.119 30.235 198.119 29.4103C198.119 29.0069 197.981 28.6864 197.738 28.4487L195.888 26.612C195.497 26.2303 195.366 25.7333 195.366 25.3336C195.366 24.462 195.962 23.5869 197.064 23.5869C197.317 23.5869 197.637 23.6337 197.894 23.6914H198.278V24.959H198.183C198.183 24.3 197.698 23.8966 197.095 23.8966C196.384 23.8966 195.905 24.4548 195.905 25.0851C195.905 25.3552 195.989 25.7369 196.293 26.0358L198.193 27.9157L198.197 27.9121Z" fill="#161A35"/>
<path d="M264.552 25.4453C263.551 25.4453 262.718 26.2088 262.547 27.2208H203.32V28.0311H262.547C262.718 29.0394 263.548 29.8065 264.552 29.8065C265.685 29.8065 266.584 28.827 266.584 27.6349C266.584 26.4429 265.681 25.4453 264.552 25.4453Z" fill="#161A35"/>
<path d="M69.5313 25.4453C70.5323 25.4453 71.3648 26.2088 71.5367 27.2208H130.763V28.0311H71.5367C71.3648 29.0394 70.5357 29.8065 69.5313 29.8065C68.3988 29.8065 67.4988 28.827 67.4988 27.6349C67.4988 26.4429 68.4021 25.4453 69.5313 25.4453Z" fill="#161A35"/>
</g>
<g clip-path="url(#clip1_2_20)">
<path d="M40.5906 6.03746L33.0076 25.7513C32.3516 27.4889 29.8272 33.7139 29.5997 34.8057H25.9477C25.7185 33.7139 23.1958 27.48 22.5398 25.7513L14.9535 6.03746L10.217 18.9989L7.36878 26.8041C6.85229 28.2975 6.54172 29.5167 6.42381 30.4598C6.28431 31.4348 6.29759 32.1975 6.46865 32.7389C6.60815 33.2892 6.88218 33.6661 7.28076 33.8785C7.67934 34.0908 8.16595 34.2005 8.73392 34.2005H9.63406C9.66395 34.2324 9.67889 34.2642 9.67889 34.2943V34.4748C9.70879 34.5385 9.72374 34.5934 9.72374 34.6553V34.7491H0C0 34.7172 0.0149468 34.6394 0.0448405 34.5208C0.0448405 34.4022 0.0597873 34.3085 0.0896809 34.2465H1.11437C1.37179 34.2465 1.66076 34.1528 1.96966 33.9723C2.25697 33.8236 2.56753 33.5317 2.91463 33.107C3.26173 32.6823 3.63042 32.086 4.029 31.3304C4.42758 30.5996 4.86934 29.6406 5.3576 28.4533L6.25773 26.1264L6.38395 25.8521L9.51946 17.1905L15.6776 0.157471H17.139L19.4558 6.13832L27.7778 26.1264L36.0999 6.13832L38.4133 0.157471H39.8748L44.6329 13.3242L43.947 15.2105L40.5906 6.03746Z" fill="#161A35"/>
<path d="M55.4992 34.5138C55.4992 34.3952 55.4842 34.3014 55.4544 34.2395H54.4297C54.1722 34.2395 53.8833 34.1457 53.5744 33.9652C53.2871 33.8166 52.9765 33.5246 52.6294 33.1C52.2906 32.6753 51.9136 32.079 51.515 31.3234C51.1165 30.5926 50.6747 29.6335 50.1864 28.4462L49.2863 26.1194L49.1601 25.8451L46.0246 17.1835L45.3237 18.999L48.1719 26.8041C48.6884 28.2976 48.999 29.5168 49.1169 30.4599C49.2564 31.4349 49.2431 32.1975 49.0721 32.739C48.9326 33.2893 48.6585 33.6662 48.2599 33.8785C47.8614 34.0909 47.3748 34.2006 46.8068 34.2006H45.9067C45.8768 34.2324 45.8618 34.2643 45.8618 34.2944V34.4748C45.8319 34.5385 45.817 34.5934 45.817 34.6553V34.7491H55.5407C55.5407 34.7102 55.5258 34.6394 55.4959 34.5138H55.4992Z" fill="#161A35"/>
<path d="M48.5273 8.62268L49.4274 6.29582C49.914 5.10849 50.3575 4.14943 50.756 3.41864C51.1546 2.65599 51.53 2.06675 51.8704 1.64208C52.2092 1.2174 52.5264 0.927208 52.8154 0.776802C53.1326 0.596315 53.4133 0.502533 53.6707 0.502533H54.6954C54.7253 0.438831 54.7402 0.353896 54.7402 0.228263C54.7701 0.109708 54.785 0.0318507 54.785 0H45.0613V0.0937825C45.0613 0.157484 45.0763 0.212338 45.1062 0.27427V0.454757C45.1062 0.486607 45.1211 0.518458 45.151 0.548539H46.0511C46.6191 0.548539 47.1057 0.658247 47.5043 0.870585C47.9029 1.08292 48.1752 1.45982 48.3164 2.01013C48.4858 2.56044 48.5007 3.31424 48.3612 4.28922C48.25 5.23236 47.9328 6.45153 47.4163 7.94497L39.8332 28.7116L36.2842 19.4838L34.0488 25.3L35.3392 28.6178L37.656 34.5987H38.4681L48.4061 8.90403L48.5306 8.62091L48.5273 8.62268Z" fill="#161A35"/>
<path d="M22.3538 0.502533V0.454757H23.5113C23.7688 0.454757 24.0577 0.635244 24.3666 1.00507C24.6838 1.34304 25.0525 2.08268 25.481 3.24523L30.9183 17.2436L33.1836 11.4114L32.2536 8.99074C31.5976 7.25311 31.1542 5.83929 30.925 4.74575C30.6958 3.65398 30.6377 2.79578 30.7556 2.19062C30.8668 1.5536 31.1243 1.12893 31.5295 0.909514C31.958 0.665325 32.4745 0.548539 33.0707 0.548539H33.9708L34.0588 0.27427V0.0937825C34.0588 0.0619318 34.0738 0.0300812 34.1037 0H22.2857C22.2857 0.0318507 22.3007 0.109708 22.3305 0.228263C22.3372 0.346818 22.3521 0.440601 22.3521 0.502533H22.3538Z" fill="#161A35"/>
</g>
<defs>
<clipPath id="clip0_2_20">
<rect width="200.653" height="28.1408" fill="white" transform="translate(67.3472 2.96216)"/>
</clipPath>
<clipPath id="clip1_2_20">
<rect width="55.544" height="34.8057" fill="white"/>
</clipPath>
</defs>
</svg>
